<?xml version="1.0" encoding="UTF-8" standalone="no"?>
<!DOCTYPE svg PUBLIC "-//W3C//DTD SVG 1.1//EN" "http://www.w3.org/Graphics/SVG/1.1/DTD/svg11.dtd">
<!-- Created with Vectornator (http://vectornator.io/) -->
<svg height="100%" stroke-miterlimit="10" style="fill-rule:nonzero;clip-rule:evenodd;stroke-linecap:round;stroke-linejoin:round;" version="1.1" viewBox="0 0 1024 1024" width="100%" xml:space="preserve" xmlns="http://www.w3.org/2000/svg" xmlns:vectornator="http://vectornator.io" xmlns:xlink="http://www.w3.org/1999/xlink">
<defs/>
<g id="Capa-1" vectornator:layerName="Capa 1">
<path d="M473.263 99.045C464.263 101.045 454.429 104.045 443.763 108.045C433.096 112.045 422.763 116.712 412.763 122.045C402.763 127.378 391.929 134.212 380.263 142.545C368.596 150.878 358.263 159.212 349.263 167.545C340.263 175.878 330.929 185.878 321.263 197.545C311.596 209.212 303.096 220.878 295.763 232.545C288.429 244.212 282.596 254.545 278.263 263.545C273.929 272.545 270.096 281.545 266.763 290.545C263.429 299.545 260.263 310.045 257.263 322.045C254.263 334.045 251.929 346.878 250.263 360.545C248.596 374.212 247.763 387.212 247.763 399.545C247.763 411.878 248.596 424.545 250.263 437.545C251.929 450.545 254.096 462.378 256.763 473.045C259.429 483.712 262.596 494.045 266.263 504.045C269.929 514.045 274.596 524.545 280.263 535.545C283.096 541.045 285.929 546.545 288.763 552.045C288.096 547.045 287.429 542.045 286.763 537.045C285.429 527.045 284.763 516.378 284.763 505.045C284.763 493.712 285.429 483.378 286.763 474.045C288.096 464.712 291.263 452.045 296.263 436.045C301.263 420.045 307.929 404.545 316.263 389.545C324.596 374.545 333.096 361.545 341.763 350.545C350.429 339.545 359.263 329.545 368.263 320.545C377.263 311.545 386.763 303.045 396.763 295.045C406.763 287.045 416.096 280.212 424.763 274.545C433.429 268.878 442.929 263.378 453.263 258.045C463.596 252.712 475.596 247.545 489.263 242.545C502.929 237.545 518.096 233.378 534.763 230.045C551.429 226.712 568.096 224.712 584.763 224.045C601.429 223.378 618.596 224.045 636.263 226.045C653.929 228.045 671.929 231.712 690.263 237.045C708.596 242.378 725.929 248.878 742.263 256.545C758.596 264.212 774.596 273.378 790.263 284.045C805.929 294.712 819.429 305.212 830.763 315.545C842.096 325.878 854.596 339.545 868.263 356.545C875.096 365.045 881.929 373.545 888.763 382.045C885.263 372.712 881.763 363.378 878.263 354.045C871.263 335.378 865.429 321.545 860.763 312.545C856.096 303.545 850.096 293.378 842.763 282.045C835.429 270.712 826.429 258.545 815.763 245.545C805.096 232.545 794.263 220.712 783.263 210.045C772.263 199.378 761.763 190.045 751.763 182.045C741.763 174.045 730.763 166.212 718.763 158.545C706.763 150.878 695.929 144.545 686.263 139.545C676.596 134.545 662.596 128.545 644.263 121.545C625.929 114.545 606.263 108.878 585.263 104.545C564.263 100.212 542.596 97.7117 520.263 97.045C497.929 96.3783 482.263 97.045 473.263 99.045ZM341.263 129.045C320.929 137.712 300.596 148.712 280.263 162.045C259.929 175.378 241.263 190.045 224.263 206.045C207.263 222.045 192.263 238.378 179.263 255.045C166.263 271.712 154.763 289.212 144.763 307.545C134.763 325.878 126.429 344.378 119.763 363.045C113.096 381.712 107.763 401.378 103.763 422.045C99.7628 442.712 97.4294 463.378 96.7628 484.045C96.0961 504.712 96.2628 518.212 97.2628 524.545C98.2628 530.878 100.263 539.045 103.263 549.045C106.263 559.045 110.096 569.045 114.763 579.045C119.429 589.045 123.929 597.545 128.263 604.545C132.596 611.545 139.429 620.878 148.763 632.545C158.096 644.212 167.596 654.712 177.263 664.045C186.929 673.378 196.096 681.378 204.763 688.045C213.429 694.712 225.929 702.712 242.263 712.045C258.596 721.378 275.429 729.212 292.763 735.545C310.096 741.878 327.929 746.712 346.263 750.045C364.596 753.378 383.763 755.045 403.763 755.045C423.763 755.045 439.263 754.212 450.263 752.545C461.263 750.878 472.763 748.378 484.763 745.045C496.763 741.712 506.929 738.378 515.263 735.045C523.596 731.712 532.763 727.212 542.763 721.545C547.763 718.712 552.763 715.878 557.763 713.045C550.763 714.212 543.763 715.378 536.763 716.545C522.763 718.878 509.929 719.878 498.263 719.545C486.596 719.212 475.263 718.045 464.263 716.045C453.263 714.045 444.096 711.878 436.763 709.545C429.429 707.212 420.596 703.712 410.263 699.045C399.929 694.378 386.929 686.712 371.263 676.045C355.596 665.378 339.763 652.045 323.763 636.045C307.763 620.045 293.929 603.712 282.263 587.045C270.596 570.378 262.096 556.712 256.763 546.045C251.429 535.378 246.596 524.045 242.263 512.045C237.929 500.045 233.763 484.212 229.763 464.545C225.763 444.878 223.596 424.878 223.263 404.545C222.929 384.212 223.263 369.712 224.263 361.045C225.263 352.378 227.763 339.378 231.763 322.045C235.763 304.712 239.929 290.378 244.263 279.045C248.596 267.712 254.263 255.378 261.263 242.045C268.263 228.712 276.096 215.878 284.763 203.545C293.429 191.212 304.263 178.212 317.263 164.545C330.263 150.878 341.096 140.545 349.763 133.545C358.429 126.545 364.096 122.378 366.763 121.045C369.429 119.712 370.929 118.545 371.263 117.545C371.429 117.045 371.596 116.545 371.763 116.045C361.596 120.378 351.429 124.712 341.263 129.045ZM555.263 252.045C541.596 254.045 529.429 256.545 518.763 259.545C508.096 262.545 498.929 265.545 491.263 268.545C483.596 271.545 475.429 275.212 466.763 279.545C458.096 283.878 451.929 287.378 448.263 290.045C446.429 291.378 444.596 292.712 442.763 294.045C449.929 292.712 457.096 291.378 464.263 290.045C478.596 287.378 492.263 286.212 505.263 286.545C518.263 286.878 529.929 288.045 540.263 290.045C550.596 292.045 559.429 294.212 566.763 296.545C574.096 298.878 583.263 302.712 594.263 308.045C605.263 313.378 618.429 321.712 633.763 333.045C649.096 344.378 661.429 354.712 670.763 364.045C680.096 373.378 688.429 382.545 695.763 391.545C703.096 400.545 711.929 413.545 722.263 430.545C732.596 447.545 741.429 465.712 748.763 485.045C756.096 504.378 760.929 519.045 763.263 529.045C765.596 539.045 767.596 550.212 769.263 562.545C770.929 574.878 771.763 589.878 771.763 607.545C771.763 625.212 770.929 640.378 769.263 653.045C767.596 665.712 765.096 678.878 761.763 692.545C758.429 706.212 753.763 720.712 747.763 736.045C741.763 751.378 735.429 765.045 728.763 777.045C722.096 789.045 714.263 801.212 705.263 813.545C696.263 825.878 686.096 837.878 674.763 849.545C663.429 861.212 652.763 870.712 642.763 878.045C632.763 885.378 627.429 889.378 626.763 890.045C626.429 890.378 626.096 890.712 625.763 891.045C626.096 891.212 626.429 891.378 626.763 891.545C627.429 891.878 638.429 887.545 659.763 878.545C681.096 869.545 699.596 860.212 715.263 850.545C730.929 840.878 744.596 831.378 756.263 822.045C767.929 812.712 778.763 803.045 788.763 793.045C798.763 783.045 808.929 771.545 819.263 758.545C829.596 745.545 840.263 729.545 851.263 710.545C862.263 691.545 871.096 673.378 877.763 656.045C884.429 638.712 890.096 619.545 894.763 598.545C899.429 577.545 902.429 560.045 903.763 546.045C905.096 532.045 905.763 520.378 905.763 511.045C905.763 501.712 904.096 489.545 900.763 474.545C897.429 459.545 894.096 448.045 890.763 440.045C887.429 432.045 883.263 423.545 878.263 414.545C873.263 405.545 864.596 393.045 852.263 377.045C839.929 361.045 827.596 347.378 815.263 336.045C802.929 324.712 788.096 313.378 770.763 302.045C753.429 290.712 736.096 281.378 718.763 274.045C701.429 266.712 687.096 261.545 675.763 258.545C664.429 255.545 654.429 253.378 645.763 252.045C637.096 250.712 623.263 249.878 604.263 249.545C585.263 249.212 568.929 250.045 555.263 252.045ZM715.763 489.045C717.096 503.045 717.429 514.045 716.763 522.045C716.096 530.045 714.763 538.878 712.763 548.545C710.763 558.212 707.929 568.212 704.263 578.545C700.596 588.878 696.763 598.045 692.763 606.045C688.763 614.045 683.263 623.378 676.263 634.045C669.263 644.712 662.763 653.712 656.763 661.045C650.763 668.378 643.263 676.545 634.263 685.545C625.263 694.545 615.263 703.378 604.263 712.045C593.263 720.712 579.929 729.545 564.263 738.545C548.596 747.545 532.096 755.212 514.763 761.545C497.429 767.878 480.763 772.545 464.763 775.545C448.763 778.545 432.929 780.378 417.263 781.045C401.596 781.712 383.096 780.712 361.763 778.045C340.429 775.378 321.429 771.545 304.763 766.545C288.096 761.545 271.929 755.378 256.263 748.045C240.596 740.712 225.263 732.045 210.263 722.045C195.263 712.045 179.929 699.712 164.263 685.045C148.596 670.378 136.763 657.712 128.763 647.045C124.763 641.712 120.763 636.378 116.763 631.045C116.596 631.378 116.429 631.712 116.263 632.045C115.929 632.712 120.096 643.378 128.763 664.045C137.429 684.712 144.429 699.712 149.763 709.045C155.096 718.378 162.096 729.212 170.763 741.545C179.429 753.878 191.263 768.045 206.263 784.045C221.263 800.045 237.929 815.045 256.263 829.045C274.596 843.045 292.929 854.878 311.263 864.545C329.596 874.212 345.096 881.378 357.763 886.045C370.429 890.712 382.429 894.545 393.763 897.545C405.096 900.545 416.429 903.045 427.763 905.045C439.096 907.045 450.929 908.545 463.263 909.545C475.596 910.545 486.263 911.045 495.263 911.045C504.263 911.045 513.596 910.212 523.263 908.545C532.929 906.878 542.096 904.545 550.763 901.545C559.429 898.545 568.763 894.545 578.763 889.545C588.763 884.545 598.096 879.212 606.763 873.545C615.429 867.878 624.596 861.045 634.263 853.045C643.929 845.045 655.263 833.545 668.263 818.545C681.263 803.545 691.096 790.712 697.763 780.045C704.429 769.378 710.096 759.212 714.763 749.545C719.429 739.878 723.929 728.878 728.263 716.545C732.596 704.212 735.929 693.045 738.263 683.045C740.596 673.045 742.596 661.212 744.263 647.545C745.929 633.878 746.763 620.378 746.763 607.045C746.763 593.712 745.263 577.378 742.263 558.045C739.263 538.712 735.596 522.378 731.263 509.045C726.929 495.712 722.929 485.545 719.263 478.545C717.429 475.045 715.596 471.545 713.763 468.045C714.429 475.045 715.096 482.045 715.763 489.045Z" fill="#173a8f" fill-rule="nonzero" opacity="1" stroke="#173a8f" stroke-linecap="round" stroke-linejoin="round" stroke-width="1"/>
</g>
</svg>
