<?xml version="1.0" encoding="UTF-8" standalone="no"?>
<!DOCTYPE svg PUBLIC "-//W3C//DTD SVG 1.1//EN" "http://www.w3.org/Graphics/SVG/1.1/DTD/svg11.dtd">
<!-- Created with Vectornator (http://vectornator.io/) -->
<svg height="100%" stroke-miterlimit="10" style="fill-rule:nonzero;clip-rule:evenodd;stroke-linecap:round;stroke-linejoin:round;" version="1.1" viewBox="0 0 1024 1024" width="100%" xml:space="preserve" xmlns="http://www.w3.org/2000/svg" xmlns:vectornator="http://vectornator.io" xmlns:xlink="http://www.w3.org/1999/xlink">
<defs/>
<g id="Capa-1" vectornator:layerName="Capa 1">
<path d="M212.017 0L811.068 0C928.162 0 1023.08 94.348 1023.08 210.732L1023.08 812.753C1023.08 929.137 928.162 1023.49 811.068 1023.49L212.017 1023.49C94.9231 1023.49 0 929.137 0 812.753L0 210.732C0 94.348 94.9231 0 212.017 0Z" fill="#173a8f" fill-rule="nonzero" opacity="1" stroke="#f9f9f9" stroke-linecap="round" stroke-linejoin="round" stroke-width="0"/>
<path d="M494.643 201.551C487.971 203.025 480.682 205.235 472.775 208.183C464.868 211.13 457.208 214.569 449.795 218.499C442.382 222.429 434.351 227.464 425.703 233.605C417.055 239.746 409.395 245.886 402.723 252.027C396.051 258.168 389.133 265.536 381.967 274.133C374.801 282.73 368.5 291.327 363.064 299.924C357.628 308.521 353.304 316.135 350.091 322.767C346.879 329.399 344.038 336.031 341.567 342.662C339.096 349.294 336.748 357.032 334.524 365.874C332.3 374.716 330.571 384.173 329.335 394.244C328.1 404.314 327.482 413.894 327.482 422.982C327.482 432.07 328.1 441.404 329.335 450.983C330.571 460.562 332.177 469.282 334.154 477.142C336.13 485.002 338.478 492.616 341.196 499.985C343.914 507.354 347.373 515.091 351.574 523.197C353.674 527.25 355.775 531.302 357.875 535.355C357.381 531.671 356.887 527.986 356.392 524.302C355.404 516.933 354.91 509.073 354.91 500.722C354.91 492.371 355.404 484.756 356.392 477.879C357.381 471.001 359.728 461.668 363.435 449.878C367.141 438.088 372.083 426.666 378.26 415.613C384.438 404.56 390.739 394.981 397.163 386.875C403.588 378.769 410.136 371.401 416.808 364.769C423.479 358.137 430.521 351.873 437.934 345.978C445.347 340.083 452.266 335.048 458.69 330.872C465.115 326.697 472.157 322.644 479.817 318.714C487.477 314.784 496.373 310.977 506.504 307.292C516.635 303.608 527.877 300.538 540.232 298.082C552.587 295.625 564.942 294.152 577.297 293.66C589.652 293.169 602.377 293.66 615.473 295.134C628.569 296.608 641.913 299.31 655.503 303.24C669.093 307.17 681.942 311.959 694.05 317.609C706.158 323.258 718.018 330.013 729.632 337.873C741.245 345.733 751.253 353.47 759.654 361.084C768.055 368.699 777.321 378.769 787.452 391.296C792.518 397.56 797.583 403.823 802.649 410.086C800.054 403.209 797.46 396.331 794.865 389.454C789.676 375.699 785.352 365.506 781.893 358.874C778.433 352.242 773.986 344.75 768.55 336.399C763.113 328.048 756.442 319.082 748.535 309.503C740.628 299.924 732.597 291.204 724.443 283.344C716.289 275.484 708.505 268.607 701.092 262.712C693.679 256.817 685.525 251.044 676.63 245.395C667.734 239.746 659.703 235.079 652.538 231.394C645.372 227.71 634.994 223.289 621.404 218.131C607.813 212.973 593.234 208.797 577.667 205.604C562.1 202.411 546.039 200.569 529.484 200.077C512.928 199.586 501.315 200.077 494.643 201.551ZM396.793 223.657C381.72 230.043 366.647 238.149 351.574 247.974C336.501 257.799 322.664 268.607 310.062 280.397C297.46 292.187 286.34 304.222 276.704 316.503C267.067 328.785 258.542 341.68 251.129 355.189C243.716 368.699 237.539 382.331 232.597 396.086C227.655 409.841 223.702 424.333 220.736 439.561C217.771 454.79 216.042 470.019 215.547 485.248C215.053 500.476 215.177 510.424 215.918 515.091C216.659 519.758 218.142 525.776 220.366 533.145C222.59 540.513 225.431 547.882 228.891 555.251C232.35 562.619 235.686 568.883 238.898 574.041C242.11 579.199 247.176 586.077 254.094 594.674C261.013 603.27 268.055 611.008 275.221 617.885C282.387 624.763 289.182 630.658 295.607 635.57C302.031 640.483 311.297 646.378 323.405 653.255C335.513 660.133 347.991 665.905 360.84 670.572C373.689 675.238 386.909 678.8 400.499 681.256C414.089 683.713 428.298 684.941 443.123 684.941C457.949 684.941 469.439 684.327 477.593 683.098C485.747 681.87 494.272 680.028 503.168 677.572C512.063 675.116 519.6 672.659 525.777 670.203C531.955 667.747 538.75 664.431 546.163 660.255C549.869 658.168 553.575 656.08 557.282 653.992C552.093 654.852 546.904 655.711 541.715 656.571C531.337 658.29 521.824 659.027 513.175 658.782C504.527 658.536 496.126 657.676 487.971 656.203C479.817 654.729 473.022 653.132 467.586 651.413C462.15 649.693 455.602 647.114 447.942 643.676C440.282 640.237 430.645 634.588 419.031 626.728C407.418 618.868 395.681 609.043 383.82 597.253C371.959 585.463 361.705 573.427 353.057 561.146C344.408 548.864 338.107 538.794 334.154 530.934C330.2 523.074 326.617 514.723 323.405 505.88C320.193 497.038 317.104 485.37 314.139 470.879C311.174 456.387 309.568 441.649 309.32 426.666C309.073 411.683 309.32 400.998 310.062 394.612C310.803 388.226 312.656 378.646 315.621 365.874C318.587 353.102 321.675 342.54 324.888 334.188C328.1 325.837 332.3 316.749 337.489 306.924C342.679 297.099 348.485 287.643 354.91 278.554C361.334 269.466 369.365 259.887 379.002 249.816C388.638 239.746 396.669 232.131 403.094 226.973C409.518 221.815 413.719 218.745 415.696 217.762C417.672 216.78 418.784 215.92 419.031 215.183C419.155 214.815 419.278 214.446 419.402 214.078C411.866 217.271 404.329 220.464 396.793 223.657ZM555.429 314.293C545.298 315.767 536.279 317.609 528.372 319.819C520.465 322.03 513.669 324.241 507.986 326.451C502.303 328.662 496.249 331.364 489.825 334.557C483.4 337.75 478.829 340.329 476.111 342.294C474.752 343.277 473.393 344.259 472.034 345.242C477.346 344.259 482.659 343.277 487.971 342.294C498.596 340.329 508.727 339.469 518.364 339.715C528.001 339.961 536.649 340.82 544.309 342.294C551.969 343.768 558.517 345.364 563.954 347.084C569.39 348.803 576.185 351.628 584.339 355.558C592.493 359.488 602.254 365.628 613.62 373.98C624.986 382.331 634.129 389.945 641.048 396.823C647.966 403.7 654.144 410.455 659.58 417.087C665.016 423.719 671.564 433.298 679.224 445.825C686.884 458.352 693.432 471.738 698.868 485.985C704.304 500.231 707.887 511.038 709.617 518.407C711.347 525.776 712.829 534.004 714.065 543.092C715.3 552.18 715.918 563.234 715.918 576.252C715.918 589.27 715.3 600.446 714.065 609.779C712.829 619.113 710.976 628.815 708.505 638.886C706.034 648.957 702.575 659.641 698.127 670.94C693.679 682.239 688.984 692.309 684.042 701.152C679.101 709.994 673.294 718.96 666.622 728.048C659.951 737.136 652.414 745.978 644.013 754.575C635.612 763.172 627.704 770.172 620.292 775.576C612.879 780.98 608.925 783.927 608.431 784.419C608.184 784.664 607.937 784.91 607.69 785.156C607.937 785.278 608.184 785.401 608.431 785.524C608.925 785.77 617.079 782.576 632.893 775.945C648.708 769.313 662.422 762.435 674.035 755.312C685.649 748.189 695.78 741.189 704.428 734.311C713.076 727.434 721.107 720.311 728.52 712.942C735.933 705.573 743.469 697.099 751.129 687.52C758.789 677.94 766.696 666.15 774.851 652.15C783.005 638.149 789.553 624.763 794.495 611.99C799.437 599.218 803.637 585.094 807.097 569.62C810.556 554.145 812.78 541.25 813.768 530.934C814.757 520.618 815.251 512.021 815.251 505.143C815.251 498.266 814.015 489.3 811.544 478.247C809.073 467.194 806.602 458.72 804.131 452.825C801.66 446.93 798.572 440.667 794.865 434.035C791.159 427.403 784.734 418.192 775.592 406.402C766.449 394.612 757.307 384.541 748.164 376.19C739.021 367.839 728.026 359.488 715.177 351.137C702.328 342.785 689.479 335.908 676.63 330.504C663.781 325.1 653.155 321.293 644.754 319.082C636.353 316.872 628.94 315.275 622.515 314.293C616.091 313.31 605.836 312.696 591.752 312.451C577.667 312.205 565.56 312.819 555.429 314.293ZM674.406 488.932C675.394 499.248 675.641 507.354 675.147 513.249C674.653 519.144 673.664 525.653 672.182 532.776C670.699 539.899 668.599 547.268 665.881 554.882C663.163 562.497 660.321 569.251 657.356 575.146C654.391 581.041 650.314 587.919 645.125 595.779C639.936 603.639 635.117 610.271 630.67 615.674C626.222 621.078 620.662 627.096 613.991 633.728C607.319 640.36 599.906 646.869 591.752 653.255C583.598 659.641 573.714 666.15 562.1 672.782C550.487 679.414 538.255 685.063 525.406 689.73C512.557 694.397 500.203 697.836 488.342 700.047C476.481 702.257 464.744 703.608 453.131 704.099C441.517 704.591 427.803 703.854 411.989 701.889C396.175 699.924 382.09 697.099 369.736 693.415C357.381 689.73 345.397 685.186 333.783 679.783C322.17 674.379 310.803 667.993 299.684 660.624C288.564 653.255 277.198 644.167 265.584 633.359C253.971 622.552 245.199 613.218 239.269 605.358C236.303 601.428 233.338 597.498 230.373 593.568C230.25 593.814 230.126 594.059 230.002 594.305C229.755 594.796 232.844 602.656 239.269 617.885C245.693 633.114 250.882 644.167 254.836 651.044C258.789 657.922 263.978 665.905 270.403 674.993C276.827 684.081 285.599 694.52 296.719 706.31C307.838 718.1 320.193 729.153 333.783 739.469C347.373 749.786 360.964 758.505 374.554 765.628C388.144 772.752 399.634 778.032 409.024 781.471C418.414 784.91 427.309 787.735 435.71 789.945C444.112 792.156 452.513 793.998 460.914 795.472C469.316 796.946 478.087 798.051 487.23 798.788C496.373 799.525 504.28 799.893 510.951 799.893C517.623 799.893 524.542 799.279 531.707 798.051C538.873 796.823 545.668 795.103 552.093 792.893C558.517 790.682 565.436 787.735 572.849 784.05C580.262 780.366 587.181 776.436 593.605 772.26C600.03 768.085 606.825 763.049 613.991 757.154C621.156 751.259 629.558 742.785 639.194 731.732C648.831 720.679 656.121 711.222 661.063 703.362C666.004 695.502 670.205 688.011 673.664 680.888C677.124 673.765 680.46 665.659 683.672 656.571C686.884 647.483 689.355 639.254 691.085 631.886C692.814 624.517 694.297 615.797 695.532 605.727C696.768 595.656 697.386 585.708 697.386 575.883C697.386 566.058 696.274 554.023 694.05 539.776C691.826 525.53 689.108 513.495 685.896 503.67C682.683 493.845 679.718 486.353 677 481.195C675.641 478.616 674.282 476.037 672.923 473.458C673.417 478.616 673.912 483.774 674.406 488.932Z" fill="#ffffff" fill-rule="nonzero" opacity="1" stroke="#f9f9f9" stroke-linecap="round" stroke-linejoin="round" stroke-width="0"/>
</g>
</svg>
